<?xml version="1.0" encoding="iso-8859-1"?>
<!-- Uploaded to: SVG Repo, www.svgrepo.com, Generator: SVG Repo Mixer Tools -->
<svg height="800px" width="800px" version="1.1" id="Layer_1" xmlns="http://www.w3.org/2000/svg" xmlns:xlink="http://www.w3.org/1999/xlink" 
	 viewBox="0 0 512.224 512.224" xml:space="preserve">
<g transform="translate(-1 -1)">
	<g>
		<path style="fill:#E4E5E6;" d="M257.112,222.978c-4.71,0-8.533-3.814-8.533-8.533V18.178c0-4.719,3.823-8.533,8.533-8.533
			c4.71,0,8.533,3.814,8.533,8.533v196.267C265.645,219.164,261.822,222.978,257.112,222.978"/>
		<path style="fill:#E4E5E6;" d="M257.112,86.445c-2.185,0-4.369-0.836-6.033-2.5l-42.667-42.667c-3.337-3.337-3.337-8.73,0-12.066
			c3.337-3.337,8.73-3.337,12.066,0l42.667,42.667c3.337,3.337,3.337,8.73,0,12.066C261.481,85.609,259.296,86.445,257.112,86.445"
			/>
		<path style="fill:#E4E5E6;" d="M257.112,86.445c-2.185,0-4.369-0.836-6.033-2.5c-3.337-3.337-3.337-8.73,0-12.066l42.667-42.667
			c3.337-3.337,8.73-3.337,12.066,0c3.337,3.337,3.337,8.73,0,12.066l-42.667,42.667C261.481,85.609,259.296,86.445,257.112,86.445"
			/>
		<path style="fill:#E4E5E6;" d="M274.178,18.067c0,9.429-7.637,17.067-17.067,17.067c-9.429,0-17.067-7.637-17.067-17.067
			S247.682,1,257.112,1C266.541,1,274.178,8.637,274.178,18.067"/>
		<path style="fill:#E4E5E6;" d="M231.512,35.245c0,9.429-7.637,17.067-17.067,17.067c-9.429,0-17.067-7.637-17.067-17.067
			s7.637-17.067,17.067-17.067C223.874,18.178,231.512,25.816,231.512,35.245"/>
		<path style="fill:#E4E5E6;" d="M316.845,35.245c0,9.429-7.637,17.067-17.067,17.067s-17.067-7.637-17.067-17.067
			s7.637-17.067,17.067-17.067S316.845,25.816,316.845,35.245"/>
		<path style="fill:#E4E5E6;" d="M257.112,189.004c-2.185,0-4.369-0.836-6.033-2.5l-34.133-34.133c-3.337-3.337-3.337-8.73,0-12.066
			c3.337-3.337,8.73-3.337,12.066,0l34.133,34.133c3.337,3.337,3.337,8.73,0,12.066
			C261.481,188.168,259.296,189.004,257.112,189.004"/>
		<path style="fill:#E4E5E6;" d="M257.112,189.004c-2.185,0-4.369-0.836-6.033-2.5c-3.337-3.337-3.337-8.73,0-12.066l34.133-34.133
			c3.337-3.337,8.73-3.337,12.066,0c3.337,3.337,3.337,8.73,0,12.066l-34.133,34.133
			C261.481,188.168,259.296,189.004,257.112,189.004"/>
		<path style="fill:#E4E5E6;" d="M240.045,146.34c0,9.429-7.637,17.067-17.067,17.067c-9.429,0-17.067-7.637-17.067-17.067
			c0-9.429,7.637-17.067,17.067-17.067C232.408,129.273,240.045,136.91,240.045,146.34"/>
		<path style="fill:#E4E5E6;" d="M308.312,146.34c0,9.429-7.637,17.067-17.067,17.067c-9.429,0-17.067-7.637-17.067-17.067
			c0-9.429,7.637-17.067,17.067-17.067C300.674,129.273,308.312,136.91,308.312,146.34"/>
		<path style="fill:#E4E5E6;" d="M257.112,504.578c-4.71,0-8.533-3.814-8.533-8.533V299.778c0-4.719,3.823-8.533,8.533-8.533
			c4.71,0,8.533,3.814,8.533,8.533v196.267C265.645,500.764,261.822,504.578,257.112,504.578"/>
		<path style="fill:#E4E5E6;" d="M299.778,487.512c-2.185,0-4.369-0.836-6.033-2.5l-42.667-42.667c-3.337-3.337-3.337-8.73,0-12.066
			c3.337-3.337,8.73-3.337,12.066,0l42.667,42.667c3.337,3.337,3.337,8.73,0,12.066
			C304.148,486.676,301.963,487.512,299.778,487.512"/>
		<path style="fill:#E4E5E6;" d="M214.445,487.512c-2.185,0-4.369-0.836-6.033-2.5c-3.337-3.337-3.337-8.73,0-12.066l42.667-42.667
			c3.337-3.337,8.73-3.337,12.066,0c3.337,3.337,3.337,8.73,0,12.066l-42.667,42.667
			C218.814,486.676,216.63,487.512,214.445,487.512"/>
		<path style="fill:#E4E5E6;" d="M240.045,496.157c0-9.429,7.637-17.067,17.067-17.067c9.429,0,17.067,7.637,17.067,17.067
			c0,9.429-7.637,17.067-17.067,17.067C247.682,513.224,240.045,505.586,240.045,496.157"/>
		<path style="fill:#E4E5E6;" d="M282.712,478.978c0-9.429,7.637-17.067,17.067-17.067s17.067,7.637,17.067,17.067
			s-7.637,17.067-17.067,17.067S282.712,488.408,282.712,478.978"/>
		<path style="fill:#E4E5E6;" d="M197.378,478.978c0-9.429,7.637-17.067,17.067-17.067c9.429,0,17.067,7.637,17.067,17.067
			s-7.637,17.067-17.067,17.067C205.016,496.045,197.378,488.408,197.378,478.978"/>
		<path style="fill:#E4E5E6;" d="M291.245,376.578c-2.185,0-4.369-0.836-6.033-2.5l-28.1-28.1l-28.1,28.1
			c-3.337,3.337-8.73,3.337-12.066,0c-3.337-3.337-3.337-8.73,0-12.066l34.133-34.133c3.337-3.337,8.73-3.337,12.066,0
			l34.133,34.133c3.337,3.337,3.337,8.73,0,12.066C295.614,375.742,293.43,376.578,291.245,376.578"/>
		<path style="fill:#E4E5E6;" d="M274.178,368.045c0-9.429,7.637-17.067,17.067-17.067c9.429,0,17.067,7.637,17.067,17.067
			s-7.637,17.067-17.067,17.067C281.816,385.112,274.178,377.474,274.178,368.045"/>
		<path style="fill:#E4E5E6;" d="M205.912,368.045c0-9.429,7.637-17.067,17.067-17.067c9.429,0,17.067,7.637,17.067,17.067
			s-7.637,17.067-17.067,17.067C213.549,385.112,205.912,377.474,205.912,368.045"/>
		<path style="fill:#E4E5E6;" d="M496.045,265.645H299.778c-4.71,0-8.533-3.814-8.533-8.533c0-4.719,3.823-8.533,8.533-8.533
			h196.267c4.71,0,8.533,3.814,8.533,8.533C504.578,261.831,500.756,265.645,496.045,265.645"/>
		<path style="fill:#E4E5E6;" d="M436.312,265.645c-2.185,0-4.369-0.836-6.033-2.5c-3.337-3.337-3.337-8.73,0-12.066l42.667-42.667
			c3.337-3.337,8.73-3.337,12.066,0c3.337,3.337,3.337,8.73,0,12.066l-42.667,42.667
			C440.681,264.809,438.496,265.645,436.312,265.645"/>
		<path style="fill:#E4E5E6;" d="M478.978,308.312c-2.185,0-4.369-0.836-6.033-2.5l-42.667-42.667c-3.337-3.337-3.337-8.73,0-12.066
			c3.337-3.337,8.73-3.337,12.066,0l42.667,42.667c3.337,3.337,3.337,8.73,0,12.066
			C483.348,307.476,481.163,308.312,478.978,308.312"/>
		<path style="fill:#E4E5E6;" d="M496.157,274.178c-9.429,0-17.067-7.637-17.067-17.067c0-9.429,7.637-17.067,17.067-17.067
			c9.429,0,17.067,7.637,17.067,17.067C513.224,266.541,505.586,274.178,496.157,274.178"/>
		<path style="fill:#E4E5E6;" d="M478.978,231.512c-9.429,0-17.067-7.637-17.067-17.067c0-9.429,7.637-17.067,17.067-17.067
			s17.067,7.637,17.067,17.067C496.045,223.874,488.408,231.512,478.978,231.512"/>
		<path style="fill:#E4E5E6;" d="M478.978,316.845c-9.429,0-17.067-7.637-17.067-17.067s7.637-17.067,17.067-17.067
			s17.067,7.637,17.067,17.067S488.408,316.845,478.978,316.845"/>
		<path style="fill:#E4E5E6;" d="M333.912,265.645c-2.185,0-4.369-0.836-6.033-2.5c-3.337-3.337-3.337-8.73,0-12.066l34.133-34.133
			c3.337-3.337,8.73-3.337,12.066,0c3.337,3.337,3.337,8.73,0,12.066l-34.133,34.133
			C338.281,264.809,336.096,265.645,333.912,265.645"/>
		<path style="fill:#E4E5E6;" d="M368.045,299.778c-2.185,0-4.369-0.836-6.033-2.5l-34.133-34.133c-3.337-3.337-3.337-8.73,0-12.066
			c3.337-3.337,8.73-3.337,12.066,0l34.133,34.133c3.337,3.337,3.337,8.73,0,12.066C372.414,298.942,370.23,299.778,368.045,299.778
			"/>
		<path style="fill:#E4E5E6;" d="M368.045,240.045c-9.429,0-17.067-7.637-17.067-17.067c0-9.429,7.637-17.067,17.067-17.067
			s17.067,7.637,17.067,17.067C385.112,232.408,377.474,240.045,368.045,240.045"/>
		<path style="fill:#E4E5E6;" d="M368.045,308.312c-9.429,0-17.067-7.637-17.067-17.067c0-9.429,7.637-17.067,17.067-17.067
			s17.067,7.637,17.067,17.067C385.112,300.674,377.474,308.312,368.045,308.312"/>
		<path style="fill:#E4E5E6;" d="M214.445,265.645H18.178c-4.71,0-8.533-3.814-8.533-8.533c0-4.719,3.823-8.533,8.533-8.533h196.267
			c4.71,0,8.533,3.814,8.533,8.533C222.978,261.831,219.156,265.645,214.445,265.645"/>
		<path style="fill:#E4E5E6;" d="M35.245,308.312c-2.185,0-4.369-0.836-6.033-2.5c-3.337-3.337-3.337-8.73,0-12.066l42.667-42.667
			c3.337-3.337,8.73-3.337,12.066,0c3.337,3.337,3.337,8.73,0,12.066l-42.667,42.667C39.614,307.476,37.43,308.312,35.245,308.312"
			/>
		<path style="fill:#E4E5E6;" d="M77.912,265.645c-2.185,0-4.369-0.836-6.033-2.5l-42.667-42.667c-3.337-3.337-3.337-8.73,0-12.066
			c3.337-3.337,8.73-3.337,12.066,0l42.667,42.667c3.337,3.337,3.337,8.73,0,12.066C82.281,264.809,80.096,265.645,77.912,265.645"
			/>
		<path style="fill:#E4E5E6;" d="M18.067,240.045c9.429,0,17.067,7.637,17.067,17.067c0,9.429-7.637,17.067-17.067,17.067
			S1,266.541,1,257.112C1,247.682,8.637,240.045,18.067,240.045"/>
		<path style="fill:#E4E5E6;" d="M35.245,282.712c9.429,0,17.067,7.637,17.067,17.067s-7.637,17.067-17.067,17.067
			s-17.067-7.637-17.067-17.067S25.816,282.712,35.245,282.712"/>
		<path style="fill:#E4E5E6;" d="M35.245,197.378c9.429,0,17.067,7.637,17.067,17.067c0,9.429-7.637,17.067-17.067,17.067
			s-17.067-7.637-17.067-17.067C18.178,205.016,25.816,197.378,35.245,197.378"/>
		<path style="fill:#E4E5E6;" d="M146.178,299.778c-2.185,0-4.369-0.836-6.033-2.5c-3.337-3.337-3.337-8.73,0-12.066l28.1-28.1
			l-28.1-28.1c-3.337-3.337-3.337-8.73,0-12.066c3.337-3.337,8.73-3.337,12.066,0l34.133,34.133c3.337,3.337,3.337,8.73,0,12.066
			l-34.133,34.133C150.548,298.942,148.363,299.778,146.178,299.778"/>
		<path style="fill:#E4E5E6;" d="M146.178,274.178c9.429,0,17.067,7.637,17.067,17.067c0,9.429-7.637,17.067-17.067,17.067
			c-9.429,0-17.067-7.637-17.067-17.067C129.112,281.816,136.749,274.178,146.178,274.178"/>
		<path style="fill:#E4E5E6;" d="M146.178,205.912c9.429,0,17.067,7.637,17.067,17.067c0,9.429-7.637,17.067-17.067,17.067
			c-9.429,0-17.067-7.637-17.067-17.067C129.112,213.549,136.749,205.912,146.178,205.912"/>
		<path style="fill:#E4E5E6;" d="M287.282,235.478c-2.185,0-4.369-0.836-6.033-2.5c-3.337-3.337-3.337-8.73,0-12.066L421.742,80.41
			c3.337-3.328,8.738-3.328,12.066,0c3.337,3.337,3.337,8.738,0,12.066L293.315,232.978
			C291.651,234.642,289.467,235.478,287.282,235.478"/>
		<path style="fill:#E4E5E6;" d="M376.578,146.178c-4.71,0-8.533-3.814-8.533-8.533V77.306c0-4.719,3.823-8.533,8.533-8.533
			c4.71,0,8.533,3.814,8.533,8.533v60.339C385.112,142.364,381.289,146.178,376.578,146.178"/>
		<path style="fill:#E4E5E6;" d="M436.92,146.178h-60.339c-4.719,0-8.533-3.814-8.533-8.533s3.814-8.533,8.533-8.533h60.339
			c4.71,0,8.533,3.814,8.533,8.533S441.631,146.178,436.92,146.178"/>
		<path style="fill:#E4E5E6;" d="M439.846,98.513c-6.665,6.665-17.468,6.665-24.132,0c-6.665-6.665-6.665-17.468,0-24.132
			c6.665-6.665,17.468-6.665,24.132,0C446.511,81.045,446.511,91.848,439.846,98.513"/>
		<path style="fill:#E4E5E6;" d="M389.253,89.373c-6.665,6.665-17.468,6.665-24.132,0c-6.665-6.665-6.665-17.468,0-24.132
			c6.665-6.665,17.468-6.665,24.132,0C395.918,71.905,395.918,82.708,389.253,89.373"/>
		<path style="fill:#E4E5E6;" d="M448.986,149.713c-6.665,6.665-17.468,6.665-24.132,0c-6.665-6.665-6.665-17.468,0-24.132
			c6.665-6.665,17.468-6.665,24.132,0C455.651,132.245,455.651,143.048,448.986,149.713"/>
		<path style="fill:#E4E5E6;" d="M308.312,214.445c-4.71,0-8.533-3.814-8.533-8.533v-34.133c0-4.719,3.823-8.533,8.533-8.533
			s8.533,3.814,8.533,8.533v34.133C316.845,210.631,313.022,214.445,308.312,214.445"/>
		<path style="fill:#E4E5E6;" d="M342.445,214.445h-34.133c-4.71,0-8.533-3.814-8.533-8.533c0-4.719,3.823-8.533,8.533-8.533h34.133
			c4.71,0,8.533,3.814,8.533,8.533C350.978,210.631,347.156,214.445,342.445,214.445"/>
		<path style="fill:#E4E5E6;" d="M368.045,180.312c-2.185,0-4.369-0.836-6.033-2.5l-25.6-25.6c-3.337-3.337-3.337-8.73,0-12.066
			c3.337-3.337,8.73-3.337,12.066,0l25.6,25.6c3.337,3.337,3.337,8.73,0,12.066C372.414,179.476,370.23,180.312,368.045,180.312"/>
		<path style="fill:#E4E5E6;" d="M342.445,154.712c-4.71,0-8.533-3.814-8.533-8.533v-17.067c0-4.719,3.823-8.533,8.533-8.533
			s8.533,3.814,8.533,8.533v17.067C350.978,150.897,347.156,154.712,342.445,154.712"/>
		<path style="fill:#E4E5E6;" d="M385.112,180.312h-17.067c-4.71,0-8.533-3.814-8.533-8.533c0-4.719,3.823-8.533,8.533-8.533h17.067
			c4.71,0,8.533,3.814,8.533,8.533C393.645,176.497,389.822,180.312,385.112,180.312"/>
		<path style="fill:#E4E5E6;" d="M226.941,235.478c-2.185,0-4.369-0.836-6.033-2.5L80.415,92.476c-3.337-3.328-3.337-8.73,0-12.066
			c3.328-3.328,8.73-3.328,12.066,0l140.493,140.501c3.337,3.337,3.337,8.73,0,12.066
			C231.31,234.642,229.126,235.478,226.941,235.478"/>
		<path style="fill:#E4E5E6;" d="M137.645,146.178H77.306c-4.719,0-8.533-3.814-8.533-8.533s3.814-8.533,8.533-8.533h60.339
			c4.71,0,8.533,3.814,8.533,8.533S142.356,146.178,137.645,146.178"/>
		<path style="fill:#E4E5E6;" d="M137.645,146.178c-4.71,0-8.533-3.814-8.533-8.533V77.306c0-4.719,3.823-8.533,8.533-8.533
			s8.533,3.814,8.533,8.533v60.339C146.178,142.364,142.356,146.178,137.645,146.178"/>
		<path style="fill:#E4E5E6;" d="M98.513,74.377c6.665,6.665,6.665,17.468,0,24.132s-17.468,6.665-24.132,0
			c-6.665-6.665-6.665-17.468,0-24.132C81.045,67.713,91.848,67.713,98.513,74.377"/>
		<path style="fill:#E4E5E6;" d="M89.98,125.577c6.665,6.665,6.665,17.468,0,24.132s-17.468,6.665-24.132,0
			c-6.665-6.665-6.665-17.468,0-24.132C72.512,118.913,83.315,118.913,89.98,125.577"/>
		<path style="fill:#E4E5E6;" d="M154.712,77.912c0,9.429-7.637,17.067-17.067,17.067c-9.429,0-17.067-7.637-17.067-17.067
			s7.637-17.067,17.067-17.067C147.074,60.845,154.712,68.482,154.712,77.912"/>
		<path style="fill:#E4E5E6;" d="M205.912,214.445h-34.133c-4.71,0-8.533-3.814-8.533-8.533c0-4.719,3.823-8.533,8.533-8.533h34.133
			c4.71,0,8.533,3.814,8.533,8.533C214.445,210.631,210.622,214.445,205.912,214.445"/>
		<path style="fill:#E4E5E6;" d="M205.912,214.445c-4.71,0-8.533-3.814-8.533-8.533v-34.133c0-4.719,3.823-8.533,8.533-8.533
			c4.71,0,8.533,3.814,8.533,8.533v34.133C214.445,210.631,210.622,214.445,205.912,214.445"/>
		<path style="fill:#E4E5E6;" d="M146.178,180.312c-2.185,0-4.369-0.836-6.033-2.5c-3.337-3.337-3.337-8.73,0-12.066l25.6-25.6
			c3.337-3.337,8.73-3.337,12.066,0c3.337,3.337,3.337,8.73,0,12.066l-25.6,25.6C150.548,179.476,148.363,180.312,146.178,180.312"
			/>
		<path style="fill:#E4E5E6;" d="M146.178,180.312h-17.067c-4.71,0-8.533-3.814-8.533-8.533c0-4.719,3.823-8.533,8.533-8.533h17.067
			c4.71,0,8.533,3.814,8.533,8.533C154.712,176.497,150.889,180.312,146.178,180.312"/>
		<path style="fill:#E4E5E6;" d="M171.778,154.712c-4.71,0-8.533-3.814-8.533-8.533v-17.067c0-4.719,3.823-8.533,8.533-8.533
			c4.71,0,8.533,3.814,8.533,8.533v17.067C180.312,150.897,176.489,154.712,171.778,154.712"/>
		<path style="fill:#E4E5E6;" d="M86.445,436.312c-2.185,0-4.369-0.836-6.033-2.5c-3.337-3.337-3.337-8.73,0-12.066l140.493-140.501
			c3.337-3.328,8.738-3.328,12.066,0c3.337,3.337,3.337,8.738,0,12.066L92.478,433.812C90.814,435.476,88.63,436.312,86.445,436.312
			"/>
		<path style="fill:#E4E5E6;" d="M137.645,445.454c-4.71,0-8.533-3.814-8.533-8.533v-60.339c0-4.719,3.823-8.533,8.533-8.533
			s8.533,3.814,8.533,8.533v60.339C146.178,441.639,142.356,445.454,137.645,445.454"/>
		<path style="fill:#E4E5E6;" d="M137.645,385.112H77.306c-4.719,0-8.533-3.814-8.533-8.533c0-4.719,3.814-8.533,8.533-8.533h60.339
			c4.71,0,8.533,3.814,8.533,8.533C146.178,381.297,142.356,385.112,137.645,385.112"/>
		<path style="fill:#E4E5E6;" d="M74.377,415.711c6.665-6.665,17.468-6.665,24.132,0c6.665,6.665,6.665,17.468,0,24.132
			c-6.665,6.665-17.468,6.665-24.132,0C67.713,433.178,67.713,422.375,74.377,415.711"/>
		<path style="fill:#E4E5E6;" d="M124.971,424.851c6.665-6.665,17.468-6.665,24.132,0c6.665,6.665,6.665,17.468,0,24.132
			c-6.665,6.665-17.468,6.665-24.132,0C118.306,442.318,118.306,431.515,124.971,424.851"/>
		<path style="fill:#E4E5E6;" d="M65.237,364.511c6.665-6.665,17.468-6.665,24.132,0c6.665,6.665,6.665,17.468,0,24.132
			c-6.665,6.665-17.468,6.665-24.132,0C58.573,381.978,58.573,371.175,65.237,364.511"/>
		<path style="fill:#E4E5E6;" d="M205.912,350.978c-4.71,0-8.533-3.814-8.533-8.533v-34.133c0-4.719,3.823-8.533,8.533-8.533
			c4.71,0,8.533,3.814,8.533,8.533v34.133C214.445,347.164,210.622,350.978,205.912,350.978"/>
		<path style="fill:#E4E5E6;" d="M205.912,316.845h-34.133c-4.71,0-8.533-3.814-8.533-8.533c0-4.719,3.823-8.533,8.533-8.533h34.133
			c4.71,0,8.533,3.814,8.533,8.533C214.445,313.031,210.622,316.845,205.912,316.845"/>
		<path style="fill:#E4E5E6;" d="M171.778,376.578c-2.185,0-4.369-0.836-6.033-2.5l-25.6-25.6c-3.337-3.337-3.337-8.73,0-12.066
			c3.337-3.337,8.73-3.337,12.066,0l25.6,25.6c3.337,3.337,3.337,8.73,0,12.066C176.148,375.742,173.963,376.578,171.778,376.578"/>
		<path style="fill:#E4E5E6;" d="M171.778,393.645c-4.71,0-8.533-3.814-8.533-8.533v-17.067c0-4.719,3.823-8.533,8.533-8.533
			c4.71,0,8.533,3.814,8.533,8.533v17.067C180.312,389.831,176.489,393.645,171.778,393.645"/>
		<path style="fill:#E4E5E6;" d="M146.178,350.978h-17.067c-4.71,0-8.533-3.814-8.533-8.533c0-4.719,3.823-8.533,8.533-8.533h17.067
			c4.71,0,8.533,3.814,8.533,8.533C154.712,347.164,150.889,350.978,146.178,350.978"/>
		<path style="fill:#E4E5E6;" d="M427.778,436.312c-2.185,0-4.369-0.836-6.033-2.5L281.253,293.31c-3.337-3.328-3.337-8.73,0-12.066
			c3.328-3.328,8.73-3.328,12.066,0l140.493,140.501c3.337,3.337,3.337,8.73,0,12.066
			C432.148,435.476,429.963,436.312,427.778,436.312"/>
		<path style="fill:#E4E5E6;" d="M436.92,385.112h-60.339c-4.719,0-8.533-3.814-8.533-8.533c0-4.719,3.814-8.533,8.533-8.533h60.339
			c4.71,0,8.533,3.814,8.533,8.533C445.454,381.297,441.631,385.112,436.92,385.112"/>
		<path style="fill:#E4E5E6;" d="M376.578,445.454c-4.71,0-8.533-3.814-8.533-8.533v-60.339c0-4.719,3.823-8.533,8.533-8.533
			c4.71,0,8.533,3.814,8.533,8.533v60.339C385.112,441.639,381.289,445.454,376.578,445.454"/>
		<path style="fill:#E4E5E6;" d="M415.711,439.846c-6.665-6.665-6.665-17.468,0-24.132c6.665-6.665,17.468-6.665,24.132,0
			c6.665,6.665,6.665,17.468,0,24.132C433.178,446.511,422.375,446.511,415.711,439.846"/>
		<path style="fill:#E4E5E6;" d="M424.244,388.646c-6.665-6.665-6.665-17.468,0-24.132c6.665-6.665,17.468-6.665,24.132,0
			c6.665,6.665,6.665,17.468,0,24.132C441.712,395.311,430.908,395.311,424.244,388.646"/>
		<path style="fill:#E4E5E6;" d="M359.512,436.312c0-9.429,7.637-17.067,17.067-17.067c9.429,0,17.067,7.637,17.067,17.067
			c0,9.429-7.637,17.067-17.067,17.067C367.149,453.378,359.512,445.741,359.512,436.312"/>
		<path style="fill:#E4E5E6;" d="M342.445,316.845h-34.133c-4.71,0-8.533-3.814-8.533-8.533c0-4.719,3.823-8.533,8.533-8.533h34.133
			c4.71,0,8.533,3.814,8.533,8.533C350.978,313.031,347.156,316.845,342.445,316.845"/>
		<path style="fill:#E4E5E6;" d="M308.312,350.978c-4.71,0-8.533-3.814-8.533-8.533v-34.133c0-4.719,3.823-8.533,8.533-8.533
			s8.533,3.814,8.533,8.533v34.133C316.845,347.164,313.022,350.978,308.312,350.978"/>
		<path style="fill:#E4E5E6;" d="M342.445,376.578c-2.185,0-4.369-0.836-6.033-2.5c-3.337-3.337-3.337-8.73,0-12.066l25.6-25.6
			c3.337-3.337,8.73-3.337,12.066,0c3.337,3.337,3.337,8.73,0,12.066l-25.6,25.6C346.814,375.742,344.63,376.578,342.445,376.578"/>
		<path style="fill:#E4E5E6;" d="M385.112,350.978h-17.067c-4.71,0-8.533-3.814-8.533-8.533c0-4.719,3.823-8.533,8.533-8.533h17.067
			c4.71,0,8.533,3.814,8.533,8.533C393.645,347.164,389.822,350.978,385.112,350.978"/>
		<path style="fill:#E4E5E6;" d="M342.445,393.645c-4.71,0-8.533-3.814-8.533-8.533v-17.067c0-4.719,3.823-8.533,8.533-8.533
			s8.533,3.814,8.533,8.533v17.067C350.978,389.831,347.156,393.645,342.445,393.645"/>
		<path style="fill:#E4E5E6;" d="M274.178,112.045h-34.133c-4.71,0-8.533-3.814-8.533-8.533c0-4.719,3.823-8.533,8.533-8.533h34.133
			c4.71,0,8.533,3.814,8.533,8.533C282.712,108.231,278.889,112.045,274.178,112.045"/>
		<path style="fill:#E4E5E6;" d="M274.178,112.045c-2.185,0-4.369-0.836-6.033-2.5c-3.337-3.337-3.337-8.73,0-12.066l17.067-17.067
			c3.337-3.337,8.73-3.337,12.066,0c3.337,3.337,3.337,8.73,0,12.066l-17.067,17.067
			C278.548,111.209,276.363,112.045,274.178,112.045"/>
		<path style="fill:#E4E5E6;" d="M240.045,112.045c-2.185,0-4.369-0.836-6.033-2.5l-17.067-17.067c-3.337-3.337-3.337-8.73,0-12.066
			c3.337-3.337,8.73-3.337,12.066,0l17.067,17.067c3.337,3.337,3.337,8.73,0,12.066C244.414,111.209,242.23,112.045,240.045,112.045
			"/>
		<path style="fill:#E4E5E6;" d="M274.178,419.245h-34.133c-4.71,0-8.533-3.814-8.533-8.533c0-4.719,3.823-8.533,8.533-8.533h34.133
			c4.71,0,8.533,3.814,8.533,8.533C282.712,415.431,278.889,419.245,274.178,419.245"/>
		<path style="fill:#E4E5E6;" d="M222.978,436.312c-2.185,0-4.369-0.836-6.033-2.5c-3.337-3.337-3.337-8.73,0-12.066l17.067-17.067
			c3.337-3.337,8.73-3.337,12.066,0s3.337,8.73,0,12.066l-17.067,17.067C227.348,435.476,225.163,436.312,222.978,436.312"/>
		<path style="fill:#E4E5E6;" d="M291.245,436.312c-2.185,0-4.369-0.836-6.033-2.5l-17.067-17.067c-3.337-3.337-3.337-8.73,0-12.066
			s8.73-3.337,12.066,0l17.067,17.067c3.337,3.337,3.337,8.73,0,12.066C295.614,435.476,293.43,436.312,291.245,436.312"/>
		<path style="fill:#E4E5E6;" d="M402.178,282.712c-4.71,0-8.533-3.814-8.533-8.533v-34.133c0-4.719,3.823-8.533,8.533-8.533
			s8.533,3.814,8.533,8.533v34.133C410.712,278.897,406.889,282.712,402.178,282.712"/>
		<path style="fill:#E4E5E6;" d="M419.245,299.778c-2.185,0-4.369-0.836-6.033-2.5l-17.067-17.067c-3.337-3.337-3.337-8.73,0-12.066
			c3.337-3.337,8.73-3.337,12.066,0l17.067,17.067c3.337,3.337,3.337,8.73,0,12.066C423.614,298.942,421.43,299.778,419.245,299.778
			"/>
		<path style="fill:#E4E5E6;" d="M402.178,248.578c-2.185,0-4.369-0.836-6.033-2.5c-3.337-3.337-3.337-8.73,0-12.066l17.067-17.067
			c3.337-3.337,8.73-3.337,12.066,0c3.337,3.337,3.337,8.73,0,12.066l-17.067,17.067
			C406.548,247.742,404.363,248.578,402.178,248.578"/>
		<path style="fill:#E4E5E6;" d="M112.045,282.712c-4.71,0-8.533-3.814-8.533-8.533v-34.133c0-4.719,3.823-8.533,8.533-8.533
			c4.71,0,8.533,3.814,8.533,8.533v34.133C120.578,278.897,116.756,282.712,112.045,282.712"/>
		<path style="fill:#E4E5E6;" d="M112.045,248.578c-2.185,0-4.369-0.836-6.033-2.5l-17.067-17.067c-3.337-3.337-3.337-8.73,0-12.066
			c3.337-3.337,8.73-3.337,12.066,0l17.067,17.067c3.337,3.337,3.337,8.73,0,12.066C116.414,247.742,114.23,248.578,112.045,248.578
			"/>
		<path style="fill:#E4E5E6;" d="M94.978,299.778c-2.185,0-4.369-0.836-6.033-2.5c-3.337-3.337-3.337-8.73,0-12.066l17.067-17.067
			c3.337-3.337,8.73-3.337,12.066,0s3.337,8.73,0,12.066l-17.067,17.067C99.348,298.942,97.163,299.778,94.978,299.778"/>
	</g>
	<path style="fill:#CFD2CF;" d="M299.778,257.112c0,23.561-19.106,42.667-42.667,42.667c-23.561,0-42.667-19.106-42.667-42.667
		c0-23.561,19.106-42.667,42.667-42.667C280.672,214.445,299.778,233.551,299.778,257.112"/>
</g>
</svg>